<?xml version="1.0" standalone="no"?>
<!DOCTYPE svg PUBLIC "-//W3C//DTD SVG 20010904//EN"
 "http://www.w3.org/TR/2001/REC-SVG-20010904/DTD/svg10.dtd">
<svg version="1.0" xmlns="http://www.w3.org/2000/svg"
 width="512.000000pt" height="512.000000pt" viewBox="0 0 512.000000 512.000000"
 preserveAspectRatio="xMidYMid meet">
<metadata>
Created by potrace 1.14, written by Peter Selinger 2001-2017
</metadata>
<g transform="translate(0.000000,512.000000) scale(0.100000,-0.100000)"
fill="#000000" stroke="none">
<path d="M4727 5074 c-1 -1 -36 -4 -77 -8 -104 -8 -129 -13 -258 -47 -162 -42
-303 -92 -492 -172 -91 -38 -178 -69 -195 -69 -19 1 -64 -18 -125 -53 -53 -30
-100 -55 -104 -55 -17 0 -653 -374 -671 -395 -11 -13 -33 -31 -50 -41 -141
-85 -391 -279 -493 -382 l-72 -74 -143 6 c-78 4 -154 9 -168 12 -14 3 -39 0
-55 -6 -16 -6 -72 -13 -125 -14 -52 -2 -104 -8 -115 -14 -10 -5 -57 -19 -104
-30 -47 -12 -105 -28 -129 -36 -24 -9 -58 -16 -75 -16 -18 0 -36 -4 -41 -9 -6
-5 -68 -39 -140 -76 -238 -124 -383 -229 -543 -395 -75 -78 -182 -218 -182
-239 0 -28 57 -120 109 -174 31 -33 107 -92 169 -133 61 -41 165 -109 229
-151 65 -42 143 -103 175 -134 l56 -56 -9 -44 c-12 -50 -4 -120 16 -160 19
-35 19 -49 1 -49 -19 0 -108 -50 -144 -81 -16 -14 -42 -46 -58 -70 -23 -36
-28 -55 -28 -104 0 -63 15 -101 56 -145 l24 -25 -107 -66 c-112 -70 -124 -79
-276 -224 -300 -284 -492 -647 -550 -1035 -19 -133 1 -205 67 -245 52 -30 195
-26 315 9 50 15 105 28 123 30 18 2 38 9 45 14 7 6 75 43 152 83 254 131 510
293 620 392 173 157 241 233 276 312 l19 44 50 -26 c64 -33 137 -35 201 -4 66
31 132 100 160 165 22 52 26 56 49 50 14 -4 60 -7 102 -6 l77 1 65 -70 c36
-39 120 -153 187 -253 67 -99 137 -201 157 -226 45 -58 172 -180 187 -180 25
0 235 99 295 140 148 99 324 310 422 504 59 117 129 305 153 406 25 109 47
230 54 295 10 88 8 367 -3 430 -7 38 -4 43 39 90 25 28 85 95 133 150 48 55
89 102 92 105 14 13 183 234 241 315 453 635 720 1298 774 1920 3 39 8 86 11
106 4 30 -3 46 -37 98 -23 35 -47 64 -53 66 -6 2 -42 12 -81 24 -56 16 -188
33 -198 25z m103 -80 c44 -13 50 -18 39 -28 -12 -11 -280 -167 -417 -243 -26
-14 -60 -35 -75 -46 -43 -30 -43 -14 0 19 21 16 45 34 53 41 199 157 345 273
346 273 0 0 24 -7 54 -16z m-291 -28 c-3 -3 -96 -57 -234 -136 -49 -29 -41
-20 58 58 44 36 93 66 115 71 42 10 67 13 61 7z m411 -74 c0 -5 -19 -19 -42
-32 -48 -26 -46 -20 4 16 38 27 38 27 38 16z m-810 -23 c-72 -46 -452 -261
-455 -257 -1 2 10 30 25 64 25 55 32 62 76 78 27 10 63 24 79 31 48 20 266 92
285 93 3 1 -2 -4 -10 -9z m715 -39 c-3 -5 -12 -10 -18 -10 -7 0 -6 4 3 10 19
12 23 12 15 0z m118 -187 c-3 -21 -8 -41 -11 -45 -7 -6 -279 -166 -324 -189
-13 -6 -19 -8 -15 -3 15 16 342 272 348 273 4 1 5 -16 2 -36z m-783 14 c-16
-15 -272 -216 -332 -261 -33 -25 -36 -25 -31 -7 3 12 0 28 -7 36 -7 9 -11 17
-9 19 2 2 81 47 174 101 94 54 179 104 190 111 26 17 33 17 15 1z m-596 -40
c-3 -9 -12 -13 -20 -10 -12 4 -11 8 3 18 21 16 26 14 17 -8z m211 -51 c-44
-36 -85 -59 -85 -48 0 9 95 70 110 71 3 1 -8 -10 -25 -23z m-391 -67 c-36 -22
-68 -39 -70 -39 -2 0 -34 -18 -71 -41 -95 -58 -66 -32 68 60 83 57 117 76 127
68 9 -7 -5 -20 -54 -48z m1527 -37 c-5 -9 -29 -28 -53 -41 -50 -28 -49 -25 12
23 53 41 54 41 41 18z m-1371 -11 c0 -3 -89 -57 -197 -119 -225 -127 -224
-124 6 28 143 94 191 117 191 91z m920 -35 c0 -4 -334 -265 -358 -280 -7 -4
-19 -3 -27 4 -8 6 -24 11 -37 10 -13 -1 -27 -2 -32 -1 -9 1 82 59 115 74 8 3
86 49 174 100 181 107 165 98 165 93z m-871 -66 c-19 -9 -58 -31 -87 -48 -86
-52 -74 -36 18 22 46 30 89 52 94 49 5 -3 -6 -13 -25 -23z m356 -15 c-31 -25
-45 -31 -45 -17 0 6 57 40 70 41 3 0 -8 -11 -25 -24z m-239 -49 c10 -8 17 -17
14 -19 -3 -3 -162 -96 -355 -207 -192 -112 -359 -209 -370 -216 -11 -8 -23
-14 -28 -14 -5 0 148 102 339 226 192 124 353 230 359 235 12 12 18 11 41 -5z
m1151 -29 c-11 -25 -30 -43 -68 -64 -30 -16 -72 -40 -94 -53 -22 -13 -36 -19
-32 -14 18 20 202 172 205 169 2 -1 -3 -18 -11 -38z m-1067 -66 c0 -5 -8 -11
-17 -14 -10 -3 -38 -18 -63 -33 -25 -15 -40 -22 -35 -17 9 10 106 72 113 73 1
0 2 -4 2 -9z m96 -85 c8 -8 14 -18 14 -23 0 -9 -95 -66 -378 -227 -84 -48
-107 -57 -124 -49 -19 8 -13 15 63 62 46 28 152 96 234 151 83 54 156 99 163
99 7 1 20 -5 28 -13z m394 10 c0 -8 -107 -75 -130 -81 -14 -3 9 14 50 39 80
48 80 48 80 42z m229 -9 c-28 -20 -164 -134 -191 -160 -11 -10 -25 -16 -31
-14 -7 2 -22 1 -34 -4 -14 -5 -25 -3 -33 6 -8 10 19 30 137 98 81 47 150 83
152 81 2 -2 2 -5 0 -7z m271 -82 c0 -17 -27 -43 -72 -69 -30 -17 -29 -14 17
33 27 28 51 51 52 51 2 0 3 -7 3 -15z m-781 -34 c26 -23 22 -34 -17 -54 -15
-7 -107 -59 -204 -116 -131 -75 -183 -101 -198 -96 -12 4 -20 11 -18 16 3 8
396 266 409 268 3 1 16 -8 28 -18z m502 -94 c-105 -100 -124 -115 -116 -95 4
9 2 25 -3 35 -9 15 3 25 86 75 54 31 100 57 103 57 4 1 -28 -32 -70 -72z
m-384 -27 c4 -20 -402 -254 -424 -246 -9 4 -13 10 -9 14 4 4 94 62 199 129
184 118 228 137 234 103z m492 -77 c-57 -73 -105 -123 -119 -123 -8 0 -21 9
-27 19 -11 18 -7 23 37 50 28 17 54 31 58 31 4 0 18 9 32 20 31 24 36 25 19 3z
m-2269 2 c0 -5 -148 -105 -156 -105 -14 0 38 42 81 65 28 15 54 31 60 36 10
10 15 11 15 4z m1860 -12 c0 -5 -35 -28 -78 -52 -42 -24 -114 -66 -160 -94
-46 -27 -85 -47 -87 -45 -4 3 98 69 188 122 18 10 50 31 72 46 40 28 65 37 65
23z m-2202 -65 c-4 -11 -718 -424 -718 -415 0 3 87 67 193 143 105 76 197 142
202 147 6 4 51 37 100 73 l90 64 68 -2 c37 -1 66 -6 65 -10z m-329 -2 c-10
-10 -163 -97 -154 -88 21 22 131 92 144 92 8 0 12 -2 10 -4z m2711 -106 c0 -6
-315 -193 -460 -273 -30 -16 -62 -35 -70 -42 -28 -22 -50 -26 -50 -7 0 11 85
71 261 182 143 91 263 168 265 172 6 9 54 -20 54 -32z m-3070 16 c0 -2 -17
-14 -37 -25 l-38 -22 28 26 c25 22 47 32 47 21z m2545 -46 c-3 -5 -16 -15 -28
-21 -19 -9 -19 -8 3 10 28 23 34 26 25 11z m615 -61 c0 -5 -15 -16 -32 -25
-18 -9 -145 -82 -283 -161 -316 -183 -342 -198 -330 -186 6 6 125 82 265 168
140 87 277 173 305 190 46 30 75 35 75 14z m-2220 -43 c0 -2 -69 -48 -152
-102 -84 -54 -199 -128 -255 -165 -125 -83 -140 -91 -147 -80 -8 12 153 120
362 241 196 115 192 112 192 106z m2271 -44 c-38 -26 -121 -73 -121 -68 0 3
30 23 68 45 68 42 97 54 53 23z m-2586 -22 c-3 -5 -12 -10 -18 -10 -7 0 -6 4
3 10 19 12 23 12 15 0z m-835 -124 c0 -3 -62 -49 -137 -103 -76 -55 -205 -148
-286 -206 -82 -59 -152 -107 -156 -107 -5 0 -14 13 -21 29 -12 29 -7 51 10 51
5 0 64 32 132 71 67 40 136 80 153 89 103 58 281 163 290 171 10 10 15 11 15
5z m576 -25 c-9 -10 -40 -33 -69 -51 -61 -37 -42 -14 29 35 57 39 63 42 40 16z
m624 -36 c0 -2 -10 -9 -22 -15 -22 -11 -22 -10 -4 4 21 17 26 19 26 11z m1380
-19 c0 -2 -8 -10 -17 -17 -16 -13 -17 -12 -4 4 13 16 21 21 21 13z m-1430 -10
c0 -2 -53 -38 -117 -79 -120 -77 -168 -108 -441 -284 -84 -54 -197 -126 -250
-161 l-97 -63 90 88 c85 83 109 99 420 277 182 104 341 198 355 207 24 18 40
23 40 15z m2084 -111 c-9 -14 -80 -61 -158 -106 -77 -45 -184 -106 -236 -137
-115 -67 -110 -64 -110 -59 0 3 86 58 190 123 105 66 220 138 258 161 37 23
68 43 70 43 1 0 -5 -11 -14 -25z m-3200 -92 c-77 -54 -149 -105 -161 -113 -12
-8 -73 -52 -136 -96 l-115 -82 -27 22 -27 22 183 106 c101 58 200 115 219 126
19 10 69 40 110 65 120 73 103 54 -46 -50z m1191 68 c-9 -8 -124 -82 -635
-409 -96 -61 -245 -156 -330 -211 -85 -54 -157 -97 -159 -95 -2 2 4 23 13 46
16 42 23 47 274 191 141 82 264 153 272 158 20 12 302 174 360 207 25 14 81
47 125 73 80 48 97 57 80 40z m1865 -194 c0 -16 -88 -115 -117 -132 -21 -12
-145 -83 -276 -159 -131 -75 -253 -145 -270 -155 -29 -16 -63 -36 -177 -104
-84 -49 0 10 170 121 102 66 237 154 300 195 374 243 370 241 370 234z m-1971
-50 c-2 -1 -13 -9 -24 -17 -19 -14 -19 -14 -6 3 7 9 18 17 24 17 6 0 8 -1 6
-3z m-49 -30 c0 -2 -60 -41 -132 -86 -73 -45 -178 -111 -233 -146 -55 -35
-125 -79 -155 -98 -30 -19 -140 -88 -245 -155 -189 -120 -190 -120 -199 -96
-4 14 -6 27 -5 28 2 2 65 38 139 81 174 100 185 106 248 144 29 17 55 31 58
31 3 0 17 8 32 19 26 18 412 241 462 268 27 14 30 15 30 10z m-1160 -21 c0 -8
-172 -126 -183 -126 -23 0 5 24 88 74 101 61 95 58 95 52z m91 -88 c-24 -18
-64 -50 -90 -70 -44 -37 -74 -47 -85 -30 -5 9 13 21 114 76 25 13 54 31 65 40
11 8 24 16 29 16 5 0 -10 -15 -33 -32z m1449 -62 c0 -4 -25 -20 -515 -331
-214 -136 -401 -249 -415 -252 -14 -2 -69 -29 -123 -60 -73 -41 -101 -53 -109
-45 -7 7 -10 13 -7 15 4 4 82 49 179 105 140 79 593 341 770 445 230 134 220
129 220 123z m-1408 -78 c-49 -48 -67 -60 -78 -53 -25 16 -18 27 37 57 29 16
62 36 73 44 40 28 30 13 -32 -48z m2790 -16 c-20 -25 -80 -66 -183 -126 -327
-189 -321 -181 31 45 46 30 105 68 130 85 25 18 47 32 48 33 2 1 -10 -16 -26
-37z m-2292 -205 c-114 -76 -371 -228 -381 -225 -7 2 41 35 107 73 65 37 157
92 204 121 85 52 135 75 70 31z m576 -70 c-84 -54 -217 -137 -220 -137 -2 0
-37 -22 -79 -50 -42 -27 -81 -50 -87 -50 -6 0 -70 -34 -143 -76 -72 -42 -148
-86 -167 -97 -25 -14 -31 -15 -20 -4 15 16 720 428 730 426 3 0 -3 -6 -14 -12z
m679 -117 c-3 -5 -12 -10 -18 -10 -7 0 -6 4 3 10 19 12 23 12 15 0z m-35 -15
c0 -5 -70 -51 -575 -379 -220 -143 -303 -192 -312 -184 -7 6 -21 7 -30 4 -13
-5 -11 0 7 21 28 31 38 39 89 68 20 11 65 38 101 59 70 42 113 66 173 100 21
11 46 26 55 31 9 6 60 34 112 64 52 30 149 86 215 125 178 105 165 98 165 91z
m778 -85 c-13 -11 -26 -19 -31 -20 -4 0 -26 -12 -50 -26 -38 -23 -35 -18 28
43 63 61 70 65 73 45 2 -14 -5 -30 -20 -42z m-1241 -43 c-10 -7 -103 -65 -205
-129 -103 -65 -200 -126 -217 -136 -16 -11 -70 -45 -120 -76 l-90 -57 52 50
c29 28 72 61 95 75 24 13 144 83 268 155 124 72 227 131 230 130 3 0 -3 -6
-13 -12z m-1118 -138 c-35 -27 -46 -23 -19 6 12 13 27 22 33 18 5 -3 -1 -14
-14 -24z m-175 -41 c-21 -24 -48 -54 -60 -67 l-22 -24 -12 22 c-11 22 0 51 21
51 5 0 30 14 56 30 26 17 49 30 51 30 2 0 -13 -19 -34 -42z m2560 -12 c-3 -7
-21 -20 -40 -29 -19 -9 -75 -42 -125 -72 -49 -30 -93 -55 -96 -55 -7 0 76 60
178 129 71 47 94 55 83 27z m-1074 -20 c0 -2 -30 -23 -67 -47 -38 -23 -106
-68 -153 -98 -47 -31 -89 -58 -95 -61 -5 -3 -62 -39 -125 -80 -63 -42 -121
-79 -128 -84 -13 -8 -13 19 1 41 6 10 123 80 152 92 6 2 21 12 35 21 14 9 50
30 80 47 30 17 109 62 175 101 126 74 125 74 125 68z m-1415 -111 c-58 -52
-80 -62 -80 -36 0 11 119 90 135 90 3 0 -22 -24 -55 -54z m2471 -36 c-2 -17
-7 -34 -12 -39 -7 -6 -169 -100 -312 -182 -18 -10 -45 -26 -60 -34 -25 -15
-25 -15 3 10 42 36 368 275 377 276 4 0 6 -14 4 -31z m-2416 -63 c0 -2 -8 -10
-17 -17 -16 -13 -17 -12 -4 4 13 16 21 21 21 13z m-206 -15 c3 -5 -21 -25 -54
-44 -33 -20 -60 -34 -60 -32 0 4 101 85 106 85 1 0 5 -4 8 -9z m491 -72 c-34
-31 -48 -38 -60 -31 -14 7 -8 14 36 40 72 41 77 40 24 -9z m1055 28 c0 -2 -97
-68 -215 -147 -187 -124 -218 -142 -237 -133 -22 10 -21 11 17 35 36 23 353
206 407 235 25 14 28 15 28 10z m-1461 -40 c-2 -2 -20 -14 -39 -26 l-35 -23
30 26 c17 14 34 26 39 26 5 0 7 -1 5 -3z m116 -133 c-5 -2 -106 -60 -224 -129
-118 -69 -216 -125 -219 -125 -4 0 28 25 262 201 l141 107 25 -25 c14 -14 21
-27 15 -29z m1295 -13 c0 -5 -49 -35 -110 -66 -60 -31 -110 -54 -110 -51 0 3
37 25 83 50 45 25 91 52 102 60 23 18 35 20 35 7z m500 -5 c0 -2 -64 -50 -142
-107 -79 -57 -147 -107 -153 -112 -5 -4 -48 -35 -94 -69 l-84 -62 -18 23 c-11
13 -19 26 -19 30 0 6 257 158 425 251 35 20 67 39 71 43 8 8 14 9 14 3z m536
-34 c-10 -20 -43 -46 -98 -77 -46 -26 -99 -57 -118 -68 -19 -11 -31 -16 -27
-11 16 17 252 192 255 189 2 -2 -3 -17 -12 -33z m-821 9 c-6 -4 -74 -52 -151
-105 -116 -78 -143 -93 -148 -80 -4 9 -5 18 -4 19 2 1 45 25 96 55 52 29 119
68 150 86 55 33 75 43 57 25z m-846 -52 c-35 -27 -46 -23 -19 6 12 13 27 22
33 18 5 -3 -1 -14 -14 -24z m-559 6 c7 -9 10 -18 7 -21 -3 -3 -99 -60 -214
-126 -114 -65 -203 -115 -198 -109 16 16 379 271 386 271 4 0 12 -7 19 -15z
m413 -9 c-4 -7 -32 -39 -60 -71 -43 -47 -55 -56 -67 -46 -25 21 -10 45 50 79
32 18 63 38 69 43 13 13 17 11 8 -5z m-311 -101 c1 -8 -216 -143 -317 -197
-49 -26 17 25 150 116 130 90 165 106 167 81z m-763 -29 c-26 -24 -393 -295
-396 -292 -2 2 9 25 24 50 25 42 46 58 198 146 155 90 187 108 174 96z m1142
-23 c-48 -65 -49 -66 -77 -59 -14 4 -24 9 -21 12 5 5 109 71 115 73 2 1 -6
-11 -17 -26z m1214 -62 c-6 -5 -83 -64 -173 -131 -153 -114 -164 -121 -177
-103 -8 10 -13 22 -12 26 2 7 355 216 367 217 2 0 0 -4 -5 -9z m-1506 -78
c-69 -90 -109 -127 -173 -163 -39 -22 -78 -45 -86 -50 -45 -28 -223 -130 -227
-130 -10 0 58 50 262 196 116 82 212 152 213 156 2 5 8 8 14 8 6 0 5 -7 -3
-17z m-909 -71 c-13 -9 -114 -81 -225 -159 -110 -77 -202 -140 -203 -138 -2 2
1 19 7 37 10 29 35 46 224 155 201 116 253 143 197 105z m2260 -106 c0 -11
-111 -87 -122 -84 -7 3 7 17 32 32 25 16 54 34 65 42 22 15 25 16 25 10z
m-2375 -135 c-6 -4 -62 -43 -125 -86 -63 -43 -141 -96 -173 -118 -31 -22 -59
-38 -62 -36 -17 17 41 62 190 149 166 96 189 109 170 91z m2370 -7 c-36 -28
-61 -36 -30 -10 17 14 35 26 40 26 6 -1 1 -8 -10 -16z m-2065 -77 c-8 -8 -143
-105 -299 -217 -271 -194 -285 -202 -329 -202 -51 1 -60 7 -47 28 8 12 670
403 685 404 2 0 -2 -6 -10 -13z"/>
</g>
</svg>
